<svg width="56" height="57" viewBox="0 0 56 57" fill="none" xmlns="http://www.w3.org/2000/svg">
<g filter="url(#filter0_d_101_338)">
<circle cx="28" cy="24.488" r="24" fill="#FF5555"/>
<path d="M30 33.488H26M34 20.488C34 18.8967 33.3679 17.3706 32.2427 16.2454C31.1174 15.1202 29.5913 14.488 28 14.488C26.4087 14.488 24.8826 15.1202 23.7574 16.2454C22.6322 17.3706 22 18.8967 22 20.488C22 23.5782 21.2205 25.694 20.3497 27.0934C19.6151 28.2739 19.2479 28.8641 19.2613 29.0288C19.2763 29.2111 19.3149 29.2806 19.4618 29.3896C19.5945 29.488 20.1926 29.488 21.3889 29.488H34.6112C35.8074 29.488 36.4056 29.488 36.5382 29.3896C36.6852 29.2806 36.7238 29.2111 36.7387 29.0288C36.7522 28.8641 36.3849 28.2739 35.6504 27.0935C34.7795 25.694 34 23.5782 34 20.488Z" stroke="white" stroke-width="2" stroke-linecap="round" stroke-linejoin="round"/>
</g>
<defs>
<filter id="filter0_d_101_338" x="0" y="0.488037" width="56" height="56" filterUnits="userSpaceOnUse" color-interpolation-filters="sRGB">
<feFlood flood-opacity="0" result="BackgroundImageFix"/>
<feColorMatrix in="SourceAlpha" type="matrix" values="0 0 0 0 0 0 0 0 0 0 0 0 0 0 0 0 0 0 127 0" result="hardAlpha"/>
<feOffset dy="4"/>
<feGaussianBlur stdDeviation="2"/>
<feComposite in2="hardAlpha" operator="out"/>
<feColorMatrix type="matrix" values="0 0 0 0 0 0 0 0 0 0 0 0 0 0 0 0 0 0 0.25 0"/>
<feBlend mode="normal" in2="BackgroundImageFix" result="effect1_dropShadow_101_338"/>
<feBlend mode="normal" in="SourceGraphic" in2="effect1_dropShadow_101_338" result="shape"/>
</filter>
</defs>
</svg>
